<?xml version="1.0" standalone="no"?>
<!DOCTYPE svg PUBLIC "-//W3C//DTD SVG 20010904//EN"
 "http://www.w3.org/TR/2001/REC-SVG-20010904/DTD/svg10.dtd">
<svg version="1.0" xmlns="http://www.w3.org/2000/svg"
 width="800.000000pt" height="800.000000pt" viewBox="0 0 800.000000 800.000000"
 preserveAspectRatio="xMidYMid meet">
<metadata>
Created by potrace 1.11, written by Peter Selinger 2001-2013
</metadata>
<g transform="translate(0.000000,800.000000) scale(0.100000,-0.100000)"
fill="#000000" stroke="none">
<path d="M3610 7939 c-286 -22 -568 -99 -935 -254 -60 -26 -132 -56 -160 -67
-60 -23 -458 -218 -465 -227 -3 -3 -30 -19 -60 -35 -75 -40 -154 -89 -360
-224 -159 -105 -187 -128 -306 -251 -141 -147 -150 -156 -246 -263 -35 -39
-76 -85 -92 -102 -25 -27 -96 -130 -96 -140 0 -3 -66 -123 -150 -271 -12 -22
-41 -74 -63 -115 -22 -41 -50 -91 -62 -110 -12 -19 -35 -60 -50 -90 -15 -30
-30 -57 -34 -60 -7 -5 -32 -57 -37 -75 -5 -18 -94 -249 -106 -275 -6 -14 -12
-29 -13 -35 -1 -5 -4 -17 -8 -25 -13 -30 -59 -155 -62 -170 -2 -8 -17 -52 -33
-97 -17 -45 -28 -84 -24 -87 3 -3 -1 -6 -8 -6 -7 0 -11 -3 -8 -6 4 -3 -7 -45
-23 -92 -16 -48 -31 -96 -34 -107 -2 -11 -6 -30 -9 -43 -8 -30 -14 -57 -26
-117 -20 -102 -24 -126 -36 -215 -2 -19 -7 -48 -9 -65 -3 -16 -7 -50 -9 -75
-3 -25 -7 -55 -10 -67 -21 -98 -27 -295 -12 -438 5 -44 10 -93 11 -110 2 -16
6 -50 9 -75 4 -25 8 -65 11 -90 2 -25 6 -62 9 -82 3 -21 8 -55 11 -75 14 -98
27 -181 31 -208 3 -16 7 -41 9 -55 2 -14 6 -37 9 -52 6 -29 7 -33 25 -128 17
-87 18 -90 49 -195 61 -205 128 -338 305 -605 50 -74 114 -167 142 -205 63
-85 78 -112 70 -125 -3 -6 1 -10 9 -10 16 0 51 -32 76 -70 14 -20 39 -53 135
-174 54 -69 364 -369 393 -381 15 -7 34 -19 42 -26 40 -37 255 -189 308 -216
17 -9 32 -20 32 -25 0 -4 4 -8 10 -8 5 0 34 -16 64 -35 30 -19 60 -35 66 -35
5 0 10 -3 10 -7 0 -5 10 -13 23 -19 12 -6 94 -48 182 -93 88 -44 165 -81 172
-81 7 0 13 -5 13 -12 0 -6 3 -8 6 -5 4 4 19 0 33 -7 37 -20 102 -48 115 -50 6
-1 16 -5 23 -9 13 -8 201 -78 218 -81 6 -1 15 -4 20 -8 8 -4 50 -16 85 -23 3
0 23 -7 45 -15 22 -7 47 -15 55 -16 8 -1 62 -14 120 -28 104 -24 151 -34 200
-41 14 -2 34 -6 45 -8 11 -3 43 -8 70 -11 28 -4 84 -11 125 -16 127 -17 245
-27 382 -34 49 -3 92 -8 98 -11 5 -3 10 -1 10 5 0 8 6 8 20 0 11 -6 20 -7 20
-3 0 4 46 8 103 9 106 1 171 7 260 25 28 6 65 13 80 15 16 3 46 12 67 19 21 7
41 11 44 8 3 -4 6 -1 6 6 0 7 5 9 10 6 6 -3 16 -3 22 1 10 6 126 49 213 78 6
1 21 8 35 13 14 6 66 28 115 48 93 38 139 59 285 127 47 22 119 56 160 75 111
51 125 57 130 65 3 3 12 8 19 10 33 7 393 196 402 210 3 6 10 10 15 10 5 1 18
6 29 13 11 7 65 40 120 74 55 34 109 67 120 74 29 18 289 200 295 206 3 4 23
19 45 35 140 103 430 370 555 511 94 106 107 122 170 205 36 47 67 87 70 90
28 27 224 350 212 350 -4 0 -2 4 4 8 9 6 39 65 88 174 9 20 16 38 16 41 0 2 7
22 17 43 9 22 17 46 19 54 3 22 25 81 41 113 8 15 16 35 18 45 37 189 48 240
56 255 6 10 6 17 0 17 -6 0 -6 13 -1 33 9 31 17 79 24 142 2 17 6 50 10 75 36
266 42 786 11 985 -3 17 -7 53 -10 80 -6 48 -9 66 -19 111 -2 12 -7 39 -10 60
-4 21 -14 66 -22 99 -9 33 -18 71 -21 85 -2 14 -22 77 -44 140 -22 63 -41 120
-43 125 -14 46 -153 333 -207 428 -21 37 -35 67 -31 67 4 0 2 4 -4 8 -6 4 -29
41 -51 82 -48 89 -88 160 -120 215 -13 22 -26 48 -30 58 -3 9 -9 17 -14 17 -5
0 -9 4 -9 9 0 5 -22 48 -50 96 -27 48 -50 88 -50 91 0 2 -17 30 -37 61 -21 32
-38 60 -38 63 0 3 -8 16 -16 30 -48 76 -109 182 -109 190 0 6 -4 10 -10 10 -5
0 -10 7 -10 15 0 8 -4 15 -10 15 -5 0 -10 4 -10 10 0 31 -101 167 -172 232
-44 40 -97 88 -117 106 -74 69 -269 230 -346 288 -268 202 -471 304 -870 439
-443 150 -714 205 -1210 245 -119 10 -195 14 -405 23 -41 2 -113 0 -160 -4z
m475 -94 c28 -2 86 -7 130 -10 97 -6 112 -9 122 -19 4 -4 4 -6 -2 -5 -18 6
-225 -35 -225 -44 0 -4 -4 -6 -10 -2 -5 3 -31 -2 -58 -10 -27 -9 -55 -18 -63
-19 -8 -2 -27 -8 -42 -14 -16 -7 -33 -12 -38 -12 -14 0 -181 -71 -199 -85 -8
-6 -28 -17 -45 -25 -57 -28 -291 -183 -315 -210 -3 -3 -27 -23 -55 -45 -27
-21 -75 -62 -105 -91 -30 -28 -91 -84 -135 -125 -239 -223 -405 -406 -405
-448 0 -6 -4 -11 -8 -11 -6 0 -30 -51 -33 -70 0 -3 -8 -13 -16 -22 -9 -10 -13
-18 -10 -18 3 0 -1 -17 -10 -37 -16 -37 -49 -154 -58 -203 -3 -14 -8 -36 -11
-50 -4 -14 -8 -38 -9 -55 -2 -16 -6 -46 -10 -65 -3 -19 -8 -53 -10 -75 -8 -76
-16 -150 -21 -200 -8 -72 -11 -208 -5 -220 3 -5 6 -14 7 -20 1 -5 5 -25 8 -43
4 -18 13 -54 22 -80 21 -63 153 -403 164 -424 5 -9 21 -56 35 -105 15 -48 30
-100 35 -115 5 -16 6 -28 4 -28 -3 0 -2 -6 3 -12 4 -7 8 -15 8 -18 1 -6 12
-62 20 -100 8 -35 18 -96 30 -180 2 -14 6 -36 9 -49 8 -35 18 -189 17 -240 -2
-30 -10 -54 -28 -77 -14 -19 -21 -34 -17 -34 5 0 5 -4 -1 -8 -5 -4 -18 -20
-28 -37 -103 -175 -181 -295 -192 -295 -8 0 -17 5 -20 10 -4 6 -11 8 -16 5 -5
-4 -9 -1 -9 5 0 6 -5 8 -10 5 -6 -4 -16 -2 -23 3 -7 5 -24 12 -38 16 -32 7
-36 21 -33 111 6 140 14 374 19 520 2 83 7 224 11 315 3 91 7 226 8 300 l1
135 -297 3 c-277 2 -298 1 -306 -15 -7 -15 -13 -140 -16 -351 0 -37 -5 -53
-16 -57 -8 -2 -130 -7 -270 -10 -242 -6 -256 -5 -256 12 -1 21 -13 107 -20
143 -6 33 -11 66 -19 115 -11 77 -8 75 -95 75 -69 0 -81 3 -90 20 -6 11 -7 20
-3 20 4 0 8 21 9 48 3 148 15 327 21 333 5 4 33 3 63 -1 30 -4 66 -6 80 -4 14
2 46 5 72 8 25 2 55 9 65 14 26 14 114 44 138 47 84 11 117 17 163 29 28 8 52
12 52 10 0 -3 8 0 18 5 15 8 68 21 100 23 32 3 4 23 -48 33 -28 6 -177 40
-219 51 -30 8 -65 21 -79 30 -38 25 -128 13 -159 -20 -22 -24 -45 -31 -81 -27
-7 1 -32 16 -55 32 -61 43 -96 45 -149 7 -46 -33 -59 -48 -53 -59 3 -3 -4 -15
-14 -26 -19 -20 -20 -46 -5 -111 6 -28 6 -166 0 -262 -2 -30 -5 -82 -6 -115
-2 -33 -5 -65 -7 -72 -3 -8 -31 -12 -84 -12 -43 0 -83 -2 -89 -6 -9 -5 -7 -64
5 -145 5 -33 11 -92 20 -185 2 -22 6 -67 9 -100 4 -33 9 -78 12 -100 4 -22 7
-59 7 -82 1 -24 3 -43 6 -43 3 0 7 -24 8 -53 1 -28 5 -70 8 -92 3 -22 7 -62
10 -90 2 -27 7 -75 11 -105 13 -109 12 -115 -21 -113 -34 2 -108 12 -145 20
-14 3 -42 6 -62 7 -21 0 -38 5 -38 9 0 5 -3 6 -7 4 -5 -3 -43 1 -87 9 -43 7
-102 16 -130 19 -28 3 -60 8 -71 11 -11 3 -36 7 -55 9 -19 2 -44 6 -55 9 -11
2 -24 5 -28 5 -5 1 -6 5 -3 9 3 5 7 30 10 58 3 27 12 98 21 157 9 60 18 119
19 131 1 12 6 27 10 34 4 7 5 16 2 21 -3 4 -1 23 4 42 6 19 13 48 16 64 7 39
8 41 23 95 8 25 14 50 16 55 1 6 4 17 7 25 7 18 67 201 71 215 14 48 51 152
58 160 4 6 10 22 13 35 3 14 19 61 36 105 17 44 36 94 41 110 6 17 15 39 20
50 4 11 18 45 29 75 30 79 50 121 74 155 11 17 20 32 20 35 -1 3 4 14 11 25
12 20 147 261 190 340 54 101 90 160 97 163 5 2 6 7 3 12 -3 5 0 14 7 22 7 7
24 34 37 58 13 25 44 68 70 96 25 28 75 83 111 124 36 40 71 79 77 86 7 7 17
24 23 38 5 14 22 33 37 43 15 10 46 38 68 62 22 25 66 71 97 102 32 32 58 62
58 68 0 15 38 33 52 25 7 -4 8 -3 4 4 -4 7 -1 12 7 12 8 0 17 7 20 14 3 8 25
20 47 26 35 9 144 70 160 89 3 3 28 18 55 32 28 14 124 67 214 117 90 51 169
92 176 92 8 0 15 4 17 8 2 4 46 29 98 54 461 225 828 349 1145 387 61 8 458 5
550 -4z m750 -98 c60 -11 242 -59 335 -90 52 -17 100 -32 105 -33 27 -5 214
-72 325 -116 150 -60 356 -161 380 -187 3 -4 22 -14 42 -25 20 -10 46 -27 58
-38 11 -10 20 -15 20 -11 0 4 4 3 8 -2 4 -6 43 -37 87 -69 73 -54 206 -163
294 -241 19 -16 80 -75 136 -130 89 -87 114 -120 194 -253 51 -85 102 -170
113 -190 11 -21 24 -41 28 -47 4 -5 17 -27 29 -47 12 -21 30 -55 42 -75 12
-21 25 -42 29 -48 4 -5 21 -35 37 -65 17 -30 62 -111 102 -178 39 -68 71 -126
71 -128 0 -2 11 -21 23 -42 84 -133 317 -602 317 -637 0 -8 5 -17 10 -20 6 -4
8 -11 5 -16 -4 -5 -1 -9 4 -9 6 0 10 -3 10 -7 -1 -5 0 -11 1 -15 1 -5 3 -11 4
-15 1 -5 13 -42 26 -83 24 -77 28 -90 35 -125 2 -11 6 -31 10 -45 4 -14 8 -35
10 -47 2 -12 6 -36 11 -55 8 -38 14 -71 19 -113 2 -16 6 -46 10 -65 6 -36 10
-86 21 -225 6 -82 5 -424 -1 -505 -1 -25 -6 -81 -10 -125 -4 -44 -8 -97 -8
-117 -1 -21 -4 -38 -7 -38 -3 0 -5 -10 -6 -22 -2 -45 -13 -133 -18 -148 -2 -8
-7 -37 -10 -65 -8 -66 -10 -78 -17 -90 -4 -5 -6 -22 -5 -36 2 -41 -19 -24 -39
29 -21 53 -165 344 -175 352 -4 3 -18 26 -33 51 -39 71 -141 222 -210 313 -67
88 -262 289 -342 353 -133 106 -295 201 -425 247 -67 24 -83 29 -147 41 -16 3
-34 8 -42 11 -17 6 -244 19 -316 18 -55 0 -141 -10 -153 -18 -4 -2 -26 -7 -48
-10 -22 -4 -51 -9 -64 -12 -14 -2 -36 -7 -50 -9 -29 -5 -65 -15 -170 -45 -41
-12 -81 -22 -87 -22 -7 -1 -13 -6 -13 -11 0 -6 -3 -8 -6 -4 -5 5 -101 -27
-189 -64 -16 -6 -34 -13 -40 -15 -5 -1 -29 -9 -52 -17 -22 -9 -44 -13 -47 -10
-3 4 -6 2 -6 -4 0 -9 -97 -63 -113 -63 -3 0 -17 -11 -31 -25 -14 -14 -37 -25
-51 -25 -28 0 -32 12 -10 34 8 8 15 20 15 26 0 8 8 10 22 7 20 -6 57 7 68 23
8 12 470 232 470 225 0 -3 16 4 35 15 20 11 42 20 49 20 8 0 17 7 20 15 3 9
20 22 38 30 18 7 45 23 61 35 15 12 27 19 27 15 0 -3 6 -1 13 4 40 34 109 81
116 81 5 0 11 3 13 8 2 4 32 32 67 62 61 52 160 151 191 191 8 11 25 32 38 47
12 15 35 45 50 67 15 22 29 42 32 45 3 3 16 25 29 50 14 25 29 48 34 51 5 3 8
8 7 10 0 2 14 38 33 79 19 41 45 104 57 140 12 36 26 74 30 85 10 22 35 137
45 200 22 145 22 335 1 465 -2 14 -7 48 -11 75 -4 28 -10 52 -14 55 -3 3 -8
21 -9 40 -2 19 -8 41 -14 48 -6 6 -8 12 -5 12 7 0 -65 187 -90 232 -9 18 -16
36 -15 41 1 4 -2 7 -8 7 -5 0 -10 4 -10 10 0 26 -142 229 -218 312 -62 68
-202 197 -213 198 -4 0 -22 13 -40 30 -19 16 -42 32 -51 36 -10 3 -18 10 -18
15 0 5 -5 9 -11 9 -6 0 -30 14 -55 30 -24 17 -44 28 -44 25 0 -4 -12 2 -27 13
-16 10 -44 26 -63 34 -19 9 -57 26 -84 38 -41 18 -145 55 -181 64 -5 2 -30 8
-55 15 -25 7 -54 15 -65 17 -11 2 -31 6 -45 9 -14 3 -42 7 -62 10 -21 3 -57 8
-80 11 -58 8 -310 9 -378 1 -119 -13 -149 -18 -225 -37 -104 -26 -99 -25 -180
-53 -85 -29 -239 -99 -243 -109 -2 -5 -8 -8 -13 -8 -12 0 -177 -102 -205 -127
-12 -10 -37 -29 -55 -43 -48 -36 -218 -208 -259 -264 -19 -26 -40 -52 -45 -59
-50 -59 -204 -345 -205 -378 0 -9 -3 -19 -7 -23 -5 -4 -8 -11 -9 -14 -3 -27
-66 -126 -112 -177 -7 -8 -11 -15 -7 -15 3 0 0 -7 -7 -15 -7 -9 -18 -21 -23
-28 -15 -18 -115 -186 -115 -194 0 -3 -6 -14 -13 -22 -13 -16 -57 -120 -74
-176 -5 -16 -8 -52 -6 -80 4 -64 42 -106 105 -114 41 -6 42 -7 45 -46 3 -52
11 -153 18 -235 3 -36 8 -96 10 -135 2 -38 5 -70 6 -70 0 0 2 -22 4 -50 8
-129 23 -289 30 -340 2 -11 12 -52 23 -90 12 -39 23 -81 26 -95 33 -149 37
-178 39 -280 1 -87 -5 -125 -32 -195 -36 -95 -99 -235 -111 -245 -3 -3 -25
-45 -50 -94 -40 -80 -141 -243 -158 -256 -4 -3 -13 -17 -21 -32 -8 -15 -21
-36 -30 -45 -9 -10 -58 -81 -108 -158 -87 -132 -93 -143 -90 -187 1 -27 -1
-44 -7 -41 -5 3 -6 1 -2 -5 11 -17 14 -72 5 -78 -5 -3 -7 -10 -3 -15 8 -14 8
-114 0 -128 -4 -6 -2 -11 5 -11 7 0 9 -3 6 -7 -4 -3 -2 -12 4 -20 6 -7 8 -13
5 -13 -4 0 4 -15 18 -33 15 -19 26 -39 26 -45 0 -6 3 -12 8 -14 10 -4 62 -86
62 -98 0 -5 4 -10 8 -10 4 0 21 -25 37 -55 17 -30 33 -55 36 -55 8 0 49 58 49
70 0 5 5 10 10 10 6 0 10 6 10 14 0 8 3 16 8 18 8 4 52 65 52 73 0 3 18 30 40
60 22 30 39 56 38 58 -5 6 24 37 34 37 6 0 7 -8 3 -17 -4 -10 -22 -76 -40
-148 -18 -71 -36 -137 -40 -145 -3 -8 -35 -37 -70 -63 -56 -42 -94 -60 -154
-72 -9 -2 -45 -11 -81 -20 -36 -9 -72 -18 -80 -20 -8 -2 -53 -13 -100 -25
-102 -26 -95 -26 -200 -5 -47 9 -94 18 -105 19 -160 26 -194 42 -196 94 -1 28
-6 89 -13 157 -2 22 -7 75 -11 119 l-7 78 66 -35 c37 -20 72 -34 79 -31 17 8
179 236 196 276 8 21 11 53 7 91 l-5 58 52 53 c138 140 267 278 267 285 0 7
206 349 227 376 5 6 17 26 27 45 11 19 38 64 60 100 23 36 46 74 53 85 7 11
25 40 40 65 25 40 28 54 27 130 -1 85 -11 217 -19 261 -3 13 -8 47 -11 74 -4
28 -10 57 -15 66 -4 9 -6 19 -3 22 3 3 1 22 -5 44 -6 21 -22 85 -36 143 -14
58 -28 112 -32 120 -3 8 -7 17 -8 20 -10 41 -59 171 -91 247 -8 17 -14 35 -14
40 0 4 -7 21 -15 37 -9 16 -17 37 -18 45 -2 9 -8 25 -14 36 -9 17 -44 115 -49
138 -1 4 -2 8 -4 10 -2 3 -8 26 -20 82 -10 46 -8 152 5 285 3 30 8 73 10 95 2
22 4 40 5 40 1 0 3 20 5 45 2 25 6 56 9 70 7 31 14 66 21 105 11 57 15 73 36
141 35 115 103 247 166 324 28 36 179 184 314 311 172 162 181 169 274 244 28
21 52 42 55 45 3 3 55 39 115 79 107 71 303 174 331 174 8 0 14 4 14 9 0 4 3
7 8 6 6 -2 65 15 102 29 8 4 17 7 20 8 38 9 112 27 126 30 11 2 19 4 19 5 0 2
24 7 75 15 24 4 47 8 50 10 7 4 115 18 224 29 32 3 60 7 62 8 5 5 216 0 249
-5z m95 -257 c30 -5 69 -11 85 -14 17 -3 44 -8 60 -10 37 -7 69 -14 73 -16 1
-2 5 -3 10 -4 41 -11 99 -30 121 -38 14 -6 28 -12 31 -12 21 -5 138 -57 195
-88 39 -22 80 -44 93 -50 12 -6 22 -15 22 -20 0 -4 6 -8 13 -8 6 0 32 -16 57
-35 206 -160 350 -322 457 -515 42 -76 93 -197 86 -204 -4 -3 -1 -6 5 -6 7 0
11 -3 10 -7 0 -5 1 -15 5 -23 14 -36 40 -137 39 -152 0 -10 2 -18 6 -18 4 0 8
-15 10 -32 1 -18 5 -53 8 -78 9 -66 13 -310 6 -310 -4 0 -7 -19 -8 -43 -1 -59
-11 -129 -23 -160 -6 -15 -8 -27 -6 -27 3 0 -1 -16 -9 -35 -8 -19 -13 -35 -11
-35 2 0 -4 -20 -15 -45 -11 -25 -20 -49 -21 -53 -1 -4 -6 -18 -11 -32 -5 -14
-9 -26 -8 -28 3 -9 -103 -192 -156 -268 -63 -91 -199 -238 -283 -304 -24 -19
-49 -41 -56 -47 -8 -7 -18 -13 -24 -13 -6 0 -11 -4 -11 -8 0 -19 -283 -174
-360 -197 -3 -1 -50 -15 -105 -32 -55 -18 -113 -34 -130 -37 -16 -4 -41 -9
-55 -11 -26 -5 -94 -15 -145 -21 -43 -5 -216 -5 -241 0 -12 2 -45 7 -75 11
-30 4 -56 8 -59 10 -3 2 -27 6 -55 9 -27 4 -68 12 -90 17 -22 5 -51 12 -65 14
-14 2 -36 7 -50 10 -14 3 -34 8 -45 10 -54 9 -138 42 -239 93 -61 31 -113 59
-116 62 -3 3 -26 19 -52 35 -27 17 -48 33 -48 38 0 4 -5 7 -11 7 -21 0 -167
134 -271 249 -45 49 -28 54 23 8 20 -18 63 -51 95 -72 33 -22 62 -44 66 -50 4
-5 8 -6 8 -2 0 5 12 0 28 -11 39 -28 123 -69 189 -93 32 -11 65 -23 73 -26 8
-3 20 -7 25 -8 6 -2 30 -8 55 -15 25 -7 54 -14 65 -16 11 -2 42 -8 69 -13 28
-5 129 -8 225 -6 187 3 291 21 442 78 112 42 279 134 348 192 130 108 204 185
282 295 92 128 183 330 204 451 3 18 7 35 9 38 6 10 19 103 20 151 1 25 5 51
9 57 4 6 3 15 -3 18 -7 4 -7 11 -2 18 5 7 8 21 6 32 -2 11 -6 52 -9 90 -5 75
-10 115 -19 155 -3 14 -9 41 -12 60 -9 44 -50 162 -75 214 -10 22 -19 46 -19
53 0 7 -3 13 -8 13 -4 0 -13 15 -21 33 -8 17 -17 34 -21 37 -3 3 -17 23 -30
45 -66 109 -185 239 -306 335 -29 23 -163 110 -169 110 -3 0 -23 11 -45 25
-22 14 -40 23 -40 20 0 -2 -16 4 -36 15 -19 11 -39 18 -45 15 -5 -4 -9 -1 -9
4 0 6 -3 10 -7 9 -5 0 -15 2 -23 5 -47 19 -153 46 -161 41 -5 -3 -9 -1 -9 3 0
5 -8 9 -17 10 -10 0 -47 5 -83 9 -137 18 -366 8 -480 -21 -14 -3 -36 -8 -50
-11 -14 -3 -45 -14 -69 -25 -47 -21 -61 -23 -61 -11 0 4 15 14 33 21 17 8 66
30 107 48 41 19 84 38 95 43 29 13 141 50 162 55 10 2 38 8 63 14 70 16 101
22 155 30 66 10 366 11 435 1z m-475 -229 c0 -1 20 -4 45 -5 50 -4 94 -12 155
-27 22 -6 46 -11 53 -11 27 -3 9 -16 -35 -28 -27 -6 -48 -11 -48 -10 0 1 -17
-5 -37 -13 -21 -9 -38 -14 -38 -12 0 2 -38 -9 -85 -25 -47 -16 -85 -26 -85
-22 0 4 -4 2 -8 -4 -4 -5 -36 -20 -72 -33 -126 -45 -414 -196 -466 -246 -6 -5
-28 -23 -49 -40 -45 -35 -148 -141 -172 -176 -9 -13 -22 -27 -27 -31 -6 -4 -7
-8 -2 -8 5 0 2 -8 -7 -18 -31 -34 -120 -235 -131 -293 -3 -13 -5 -24 -6 -24
-1 0 -3 -7 -5 -15 -2 -8 -10 -44 -19 -80 -8 -36 -18 -87 -22 -115 -3 -27 -8
-59 -10 -70 -21 -106 -20 -461 2 -635 l5 -45 -30 29 c-17 17 -31 35 -31 42 0
7 -3 14 -7 16 -25 11 -141 252 -159 331 -2 9 -6 26 -9 37 -13 53 -16 67 -21
90 -19 110 -19 330 1 400 2 8 7 29 10 46 27 166 128 390 233 524 45 57 157
168 208 206 21 16 41 31 44 34 16 18 146 92 215 123 135 60 234 87 375 103 24
3 45 6 47 7 2 3 188 0 188 -2z m538 -166 c113 -70 237 -169 225 -181 -3 -2
-20 2 -39 8 -55 21 -263 17 -329 -6 -30 -10 -59 -22 -65 -26 -5 -5 -14 -9 -20
-11 -21 -5 -83 -48 -127 -90 -86 -82 -149 -198 -165 -303 -15 -99 0 -248 28
-282 6 -8 9 -14 5 -14 -3 0 5 -21 18 -47 84 -164 263 -287 436 -299 25 -1 47
-4 50 -5 3 -1 8 -1 12 0 4 0 33 3 65 6 57 5 148 30 169 46 6 5 14 6 17 2 4 -3
7 -1 7 5 0 7 5 12 12 12 22 0 136 95 173 145 56 74 95 162 88 196 -5 25 -2 29
16 29 17 0 21 -6 22 -32 0 -18 3 -44 6 -58 7 -34 7 -243 0 -310 -6 -52 -10
-71 -22 -120 -3 -11 -7 -28 -9 -37 -10 -44 -51 -154 -79 -213 -123 -257 -319
-451 -594 -589 -35 -17 -63 -28 -63 -25 0 4 -6 2 -12 -3 -7 -6 -38 -18 -68
-27 -30 -10 -62 -20 -70 -23 -8 -4 -19 -5 -24 -4 -5 1 -16 -1 -25 -5 -58 -25
-299 -37 -426 -21 -69 9 -98 13 -105 17 -3 1 -9 3 -15 4 -76 14 -196 58 -288
106 -130 66 -137 70 -137 81 0 5 -5 9 -11 9 -7 0 -33 17 -58 37 -85 69 -83 67
-96 148 -35 216 -40 589 -10 775 3 19 7 46 9 60 4 21 9 47 30 135 9 37 29 102
34 110 4 6 7 17 9 25 4 31 88 188 129 240 23 30 66 78 95 106 61 57 225 174
246 174 7 0 13 4 13 8 0 5 35 25 78 45 96 44 174 79 187 83 6 1 64 23 130 47
102 38 218 72 275 81 9 1 21 6 28 10 7 4 15 6 18 3 3 -2 24 1 47 8 65 20 110
12 180 -30z m147 -260 c52 -12 154 -69 200 -111 22 -20 53 -58 69 -83 26 -41
38 -67 66 -146 11 -30 12 -144 2 -195 -34 -170 -187 -321 -362 -358 -52 -11
-149 -9 -205 3 -56 12 -164 73 -209 117 -77 77 -144 215 -137 282 2 15 0 29
-5 32 -4 2 -6 10 -4 17 3 7 7 30 9 52 7 57 31 140 46 155 3 3 11 17 19 33 8
15 18 27 23 27 4 0 8 5 8 10 0 10 44 55 86 90 30 24 115 62 169 75 53 13 166
13 225 0z m-2114 -697 c-4 -31 -9 -147 -6 -158 0 -3 3 -43 5 -90 5 -91 11
-165 15 -165 1 0 3 -11 6 -25 51 -300 209 -603 429 -825 137 -137 245 -221
383 -297 51 -28 72 -45 70 -57 -3 -12 22 -29 92 -64 176 -90 294 -179 339
-257 63 -108 84 -147 84 -157 0 -7 3 -13 7 -13 3 0 12 -17 19 -37 7 -21 19
-53 27 -71 8 -18 17 -54 20 -80 3 -26 7 -53 9 -59 3 -7 0 -13 -6 -13 -6 0 -7
-5 -3 -12 4 -6 6 -30 5 -52 -4 -72 -9 -121 -11 -121 -1 0 -3 -17 -6 -38 -2
-21 -9 -57 -15 -80 -6 -23 -13 -53 -15 -67 -10 -54 -67 -227 -107 -319 -34
-81 -99 -206 -113 -220 -3 -3 -79 44 -94 59 -3 3 -39 34 -80 70 -41 35 -104
92 -140 126 -118 113 -202 188 -246 219 -15 11 -33 26 -40 33 -7 6 -15 12 -18
12 -3 0 -22 11 -42 25 -35 24 -144 78 -244 123 -25 10 -110 43 -190 71 -80 29
-168 61 -196 72 l-52 20 40 72 c50 91 92 180 90 190 -1 4 3 7 10 7 6 0 8 3 5
7 -4 3 -3 11 2 17 11 13 61 142 66 171 2 11 7 34 10 50 6 33 7 193 1 203 -2 4
-7 27 -10 52 -6 44 -10 66 -21 113 -3 12 -8 34 -10 49 -2 15 -9 37 -15 48 -6
11 -8 20 -6 20 3 0 -1 18 -9 40 -16 46 -25 106 -28 197 -1 35 -4 63 -7 63 -3
0 -6 30 -6 68 -1 37 -5 92 -8 122 -4 30 -9 91 -12 135 -10 155 -12 191 -18
250 -3 33 -8 92 -12 130 -3 39 -7 71 -8 73 -2 1 -21 -4 -42 -12 -22 -7 -51
-13 -64 -12 -22 1 -25 6 -26 41 0 35 39 162 55 175 4 3 19 30 35 60 33 63 65
112 81 122 5 4 6 8 2 8 -12 0 2 20 14 20 6 0 8 -14 5 -32z m-1597 -422 c10
-12 8 -17 -8 -25 -11 -6 -29 -11 -41 -11 -20 0 -20 1 -4 25 18 28 36 32 53 11z
m-293 -21 c18 -14 47 -28 64 -31 54 -11 32 -25 -37 -23 -89 2 -123 28 -87 63
20 21 21 20 60 -9z m164 -45 c0 -5 -4 -10 -10 -10 -5 0 -10 5 -10 10 0 6 5 10
10 10 6 0 10 -4 10 -10z m-30 -10 c0 -5 -4 -10 -9 -10 -6 0 -13 5 -16 10 -3 6
1 10 9 10 9 0 16 -4 16 -10z m1055 -692 c-3 -101 -8 -241 -10 -313 -2 -71 -7
-213 -10 -315 -9 -231 -12 -332 -14 -392 l-1 -48 -77 6 c-43 4 -94 8 -113 9
-19 2 -35 4 -35 5 0 0 -27 3 -60 5 -64 4 -152 12 -219 20 -22 2 -75 7 -116 10
-41 3 -97 7 -125 10 -67 7 -160 16 -215 20 -80 6 -174 15 -206 19 -17 3 -57 6
-88 8 -64 3 -63 2 -72 103 -7 91 -10 120 -17 175 -3 25 -9 77 -13 115 -3 39
-8 84 -10 100 -3 17 -7 50 -9 75 -2 25 -7 70 -10 100 -3 30 -8 73 -10 95 -21
164 -27 268 -16 274 5 4 63 6 128 5 137 -2 134 -2 131 -11 -2 -8 11 -113 18
-148 3 -11 7 -38 9 -60 3 -22 8 -53 12 -70 4 -16 7 -37 7 -45 1 -13 28 -15
183 -15 101 0 183 2 183 5 0 3 74 6 164 6 90 1 168 4 173 7 5 3 9 40 9 82 -1
41 1 75 4 75 3 0 5 57 5 128 0 70 1 130 3 135 2 4 98 7 213 7 l211 0 -7 -182z
m3936 -533 c8 -3 28 -7 44 -9 17 -2 45 -9 63 -15 18 -5 33 -10 35 -10 1 0 15
-4 30 -10 16 -6 30 -11 32 -11 6 0 148 -69 180 -88 153 -88 335 -245 465 -402
19 -23 43 -49 53 -58 9 -9 17 -22 17 -28 0 -7 4 -14 9 -16 13 -4 136 -182 163
-235 12 -24 26 -43 30 -43 4 0 8 -4 8 -10 0 -5 14 -32 30 -61 17 -28 32 -56
33 -63 1 -6 5 -13 8 -16 8 -6 118 -234 121 -252 2 -7 5 -15 9 -18 3 -3 13 -27
23 -55 10 -27 22 -60 28 -72 19 -38 -78 -292 -181 -478 -118 -212 -282 -438
-446 -614 -121 -129 -293 -293 -371 -353 -16 -12 -31 -25 -34 -28 -14 -18
-241 -188 -350 -262 -138 -95 -354 -228 -369 -228 -5 0 -11 -4 -13 -8 -1 -5
-32 -24 -68 -43 -36 -18 -68 -38 -72 -44 -4 -5 -8 -6 -8 -1 0 5 -6 4 -12 -2
-14 -11 -281 -145 -363 -182 -27 -13 -90 -43 -140 -67 -49 -24 -90 -44 -90
-43 0 2 -109 -46 -160 -70 -53 -25 -296 -122 -315 -125 -8 -2 -15 -4 -15 -5 0
-1 -7 -3 -15 -5 -8 -2 -42 -14 -75 -25 -33 -12 -69 -23 -80 -26 -48 -10 -61
-13 -80 -18 -89 -20 -120 -26 -190 -32 -188 -16 -451 -8 -660 21 -16 3 -55 7
-85 11 -30 3 -66 7 -80 9 -101 13 -132 18 -188 31 -35 8 -77 16 -95 19 -28 4
-54 10 -129 30 -10 3 -28 7 -40 10 -34 7 -183 54 -263 82 -38 14 -74 26 -80
27 -5 1 -28 10 -50 20 -22 10 -56 24 -75 31 -83 31 -342 155 -351 168 -3 5 -8
7 -10 6 -6 -5 -159 81 -159 89 0 4 13 21 28 38 25 30 52 63 112 138 14 17 29
36 35 42 5 6 22 25 38 43 15 17 35 31 45 32 95 4 216 15 278 25 22 4 48 8 59
10 11 1 21 3 23 3 1 1 3 1 5 1 2 0 157 43 192 54 27 8 56 21 125 54 66 33 96
58 255 218 99 99 203 196 230 214 28 19 52 36 55 39 3 3 19 13 35 21 17 8 32
17 35 20 6 7 221 116 235 120 6 1 20 6 33 11 34 13 40 12 127 -36 44 -24 95
-51 113 -61 43 -22 182 -159 182 -180 0 -3 7 -12 15 -21 9 -8 47 -59 86 -114
39 -54 74 -101 78 -103 4 -3 25 -1 47 4 21 5 51 11 67 14 15 3 39 9 55 12 49
10 214 45 236 51 11 3 138 7 281 9 143 2 265 5 272 6 18 2 -4 37 -30 48 -12 4
-44 18 -72 31 -27 12 -52 23 -55 24 -3 1 -23 9 -45 19 -22 10 -62 26 -89 37
l-48 20 -77 -30 c-116 -44 -163 -57 -249 -67 -49 -6 -61 -3 -128 32 -41 21
-74 42 -74 46 0 4 -7 8 -15 8 -8 0 -15 4 -15 8 0 5 -12 14 -27 21 -23 10 -175
124 -209 156 -6 5 -33 28 -60 50 -55 45 -118 100 -182 162 l-45 41 54 92 c30
51 61 105 69 119 8 14 30 50 48 79 17 29 32 54 32 57 0 6 92 149 100 155 3 3
19 23 35 45 17 22 32 42 35 45 6 6 35 47 72 104 50 76 152 292 149 314 -1 6 3
12 10 12 6 0 9 6 6 14 -3 7 -2 17 3 22 11 13 67 206 86 296 15 78 25 154 29
225 2 35 7 67 10 73 3 5 2 10 -3 10 -14 0 -4 83 16 133 7 16 12 32 12 36 0 12
32 44 59 60 59 33 319 161 328 161 6 0 10 -69 10 -182 0 -167 8 -245 39 -423
7 -39 14 -83 19 -120 2 -16 6 -39 8 -50 4 -20 19 -111 22 -130 0 -5 5 -9 10
-9 6 1 33 5 60 9 28 3 59 8 70 9 11 2 25 4 32 5 8 1 10 17 7 54 -8 78 -10 90
-19 110 -4 9 -5 24 -1 32 3 8 2 15 -2 15 -4 0 -8 12 -9 28 0 15 -3 41 -6 57
-3 17 -8 48 -11 70 -4 23 -9 52 -11 65 -14 68 -18 132 -19 324 -1 209 2 233
35 237 19 3 56 16 81 30 39 20 56 11 63 -33 4 -24 8 -56 11 -73 2 -16 6 -48 8
-70 3 -22 7 -51 9 -65 3 -14 8 -54 12 -90 4 -36 9 -74 11 -85 16 -87 20 -187
11 -266 -19 -151 -29 -396 -17 -402 3 -1 16 -54 28 -116 13 -63 26 -124 29
-135 3 -12 7 -32 10 -46 9 -49 9 -48 60 -38 26 5 59 11 73 14 55 11 61 15 56
42 -2 15 -5 27 -6 27 -1 0 -3 12 -5 26 -2 14 -8 44 -14 67 -6 22 -11 44 -10
49 1 4 0 15 -4 23 -25 66 -39 287 -23 375 23 131 24 306 1 395 -2 8 -6 40 -10
71 -3 31 -7 65 -9 75 -2 11 -7 46 -11 79 -4 33 -9 71 -11 85 -2 14 -6 45 -9
70 -2 25 -6 55 -9 67 -3 15 1 24 12 27 42 12 100 25 136 31 21 3 50 8 62 11
13 4 24 2 25 -2 1 -5 3 -20 5 -34 7 -53 15 -116 29 -250 4 -38 14 -120 21
-165 3 -22 7 -62 10 -90 4 -43 6 -61 13 -107 1 -4 13 -6 29 -5 l27 2 0 -178
c0 -97 2 -177 5 -178 44 -6 81 -5 86 3 4 6 7 91 6 189 0 146 3 179 14 179 12
0 20 28 14 55 -2 10 -6 46 -16 145 -3 36 -8 74 -10 85 -2 11 -6 45 -9 75 -3
30 -8 69 -10 85 -5 34 -17 138 -20 175 -1 14 0 29 3 34 5 8 207 1 233 -9z
m-1887 -7 c-5 -7 74 -33 131 -43 17 -2 80 -8 140 -11 61 -3 124 -8 140 -9 17
-2 48 -4 70 -4 l40 -1 -59 -39 c-80 -53 -159 -131 -204 -199 -61 -94 -64 -95
-95 -27 -35 75 -126 220 -157 250 -17 17 -40 40 -52 53 -12 12 -28 22 -35 22
-8 0 -11 5 -8 10 3 6 26 9 50 8 23 -2 41 -6 39 -10z m-4089 -403 c22 -4 51 -8
65 -10 14 -2 25 -4 25 -5 0 -1 14 -3 30 -5 35 -4 87 -12 190 -29 27 -4 72 -11
145 -21 119 -17 145 -22 145 -25 0 -3 49 -8 149 -14 55 -4 111 -8 125 -11 28
-4 153 -15 236 -20 70 -5 184 -15 220 -21 17 -2 64 -6 105 -9 41 -3 95 -7 120
-10 25 -2 74 -7 110 -10 36 -3 81 -8 100 -10 19 -2 74 -6 123 -10 61 -4 112
-15 170 -36 45 -17 97 -35 115 -41 37 -13 40 -26 12 -58 -11 -12 -22 -31 -25
-41 -4 -11 -11 -19 -16 -19 -5 0 -8 -3 -7 -7 5 -16 -72 -121 -138 -189 -38
-40 -108 -112 -156 -161 l-87 -90 6 -44 c12 -89 7 -106 -58 -197 -35 -48 -68
-90 -73 -94 -6 -4 -33 6 -61 21 -120 68 -143 79 -152 72 -10 -6 -9 -49 2 -171
3 -36 7 -92 9 -125 3 -33 7 -76 10 -95 3 -19 8 -71 11 -115 6 -75 22 -115 47
-115 5 0 21 -9 36 -19 15 -11 45 -23 67 -26 22 -4 49 -8 60 -10 11 -2 81 -15
155 -30 74 -14 146 -23 160 -19 14 3 32 7 40 9 8 2 51 13 95 24 44 12 93 24
109 27 16 2 36 9 45 13 9 5 21 9 26 9 22 1 82 14 115 25 33 11 111 63 118 79
2 5 8 8 13 8 18 0 88 76 92 100 3 14 12 54 21 90 19 77 27 109 30 130 2 8 8
35 15 59 8 29 10 73 6 130 -3 47 -8 113 -10 146 -2 33 -4 61 -4 63 -2 6 -27
-23 -47 -53 -10 -16 -22 -34 -27 -40 -4 -5 -46 -68 -92 -140 -46 -71 -88 -134
-92 -140 -5 -5 -19 -27 -32 -48 l-23 -38 -22 33 c-13 18 -40 61 -61 96 l-39
64 -1 141 0 142 143 214 c79 117 148 218 153 225 5 6 16 19 23 30 12 18 15 18
82 -5 38 -13 72 -24 77 -25 4 -1 9 -3 12 -4 3 -1 8 -3 13 -5 4 -1 16 -5 27 -9
11 -4 45 -17 75 -28 65 -24 83 -31 132 -52 20 -9 39 -16 42 -16 13 0 183 -85
231 -116 86 -54 165 -120 294 -242 120 -115 276 -252 287 -252 2 0 16 -10 29
-23 l25 -22 -48 -75 c-49 -76 -106 -138 -198 -220 -85 -75 -93 -81 -268 -209
-93 -68 -181 -134 -195 -148 -23 -22 -127 -87 -141 -88 -3 -1 -14 -6 -25 -12
-20 -11 -163 -60 -200 -68 -11 -2 -65 -16 -120 -31 -55 -14 -108 -28 -118 -30
-10 -2 -27 -6 -37 -9 -10 -3 -28 -8 -40 -10 -11 -2 -74 -22 -138 -44 -205 -71
-322 -93 -482 -94 -111 -1 -149 5 -245 33 -115 35 -143 39 -285 45 -115 5
-147 14 -208 58 -60 43 -162 99 -162 90 0 -5 -4 -3 -8 3 -4 6 -37 27 -75 48
-188 102 -416 293 -706 589 -141 144 -188 196 -188 210 0 7 -8 46 -16 87 -20
93 -28 138 -32 170 -2 14 -6 41 -10 60 -9 45 -15 84 -20 140 -2 25 -4 45 -5
45 -3 0 -9 40 -16 100 -4 33 -8 71 -10 85 -7 48 -16 135 -17 177 -1 24 -4 43
-7 43 -10 0 -17 249 -7 273 7 19 14 19 132 2z m215 -1545 c126 -124 206 -198
280 -260 29 -25 58 -49 64 -55 6 -5 38 -30 71 -55 33 -25 62 -48 63 -52 2 -5
8 -8 13 -8 11 0 70 -40 81 -55 4 -5 8 -6 8 -1 0 5 8 2 18 -6 9 -9 60 -38 112
-65 125 -65 139 -73 173 -104 l29 -26 -34 -14 c-18 -7 -35 -14 -38 -14 -3 -1
-22 -9 -43 -18 -62 -27 -115 -28 -232 -2 -11 2 -45 11 -75 20 -30 9 -72 21
-93 27 -37 10 -74 48 -127 128 -8 12 -20 28 -25 34 -21 22 -125 178 -125 186
0 5 -4 10 -8 12 -10 4 -134 207 -179 293 -17 33 -41 84 -53 114 -25 65 -29 68
120 -79z m3420 -119 c0 -5 -10 -22 -23 -38 -24 -30 -84 -127 -112 -182 l-17
-34 44 -40 c35 -33 38 -39 18 -32 -62 20 -84 14 -252 -67 -54 -26 -101 -47
-105 -47 -3 0 -9 -3 -12 -8 -3 -5 -28 -22 -56 -38 -124 -71 -191 -129 -423
-369 -71 -73 -108 -103 -160 -128 -37 -18 -69 -33 -72 -33 -3 0 -27 -8 -55
-18 -62 -21 -170 -47 -210 -52 -16 -1 -30 -4 -30 -5 0 -5 -165 -20 -272 -24
l-62 -3 -53 -64 c-29 -35 -56 -65 -60 -67 -5 -2 -8 -8 -8 -13 0 -5 -8 -17 -17
-27 -17 -17 -76 -89 -98 -119 -9 -13 -20 -12 -84 3 -62 15 -91 30 -185 97 -61
44 -146 107 -189 141 -100 78 -357 331 -422 415 l-49 64 35 -7 c18 -5 52 -12
74 -18 22 -5 73 -11 114 -13 83 -4 146 14 281 81 66 33 83 37 140 35 128 -4
186 -11 265 -32 156 -42 198 -47 330 -44 72 1 144 5 160 9 38 8 97 19 110 22
6 1 12 3 15 4 3 1 12 3 20 5 12 3 70 20 135 39 6 2 21 8 35 13 34 14 158 51
192 57 15 2 31 7 36 10 5 3 19 7 33 10 42 9 62 14 129 31 36 9 72 18 80 20 29
6 175 57 200 70 87 43 116 60 122 69 4 6 8 7 8 3 0 -8 16 3 58 42 22 21 125
96 265 196 15 11 47 37 70 58 41 37 57 45 57 28z m440 -740 c27 -21 63 -45 80
-52 36 -16 38 -25 8 -33 -44 -11 -64 -6 -80 22 -10 15 -28 40 -43 56 -23 27
-32 46 -20 46 3 0 28 -18 55 -39z"/>
<path d="M6312 4137 l-44 -9 7 -56 c4 -31 8 -69 10 -83 1 -15 6 -39 9 -55 8
-37 13 -67 21 -128 3 -27 8 -52 10 -55 2 -4 6 -31 9 -61 6 -54 10 -78 22 -150
9 -52 12 -71 18 -110 3 -19 7 -44 10 -55 2 -11 6 -45 10 -75 10 -82 11 -83 90
-69 54 9 66 14 62 28 -3 9 -8 39 -12 66 -3 28 -8 59 -11 70 -2 11 -6 40 -10
65 -7 52 -11 75 -13 75 -1 0 -3 18 -5 40 -1 22 -4 40 -5 40 -1 0 -3 11 -5 25
-2 14 -6 43 -10 65 -3 22 -8 51 -10 64 -2 13 -7 45 -11 70 -4 25 -8 55 -10 66
-3 11 -7 38 -10 60 -4 22 -7 47 -9 55 -1 8 -5 41 -10 73 -8 64 -7 63 -103 44z"/>
</g>
</svg>
